<?xml version="1.0" encoding="utf-8"?>
<!-- Generator: Adobe Illustrator 19.1.0, SVG Export Plug-In . SVG Version: 6.00 Build 0)  -->
<svg version="1.1" xmlns="http://www.w3.org/2000/svg" xmlns:xlink="http://www.w3.org/1999/xlink" x="0px" y="0px"
	 viewBox="0 0 32 32" style="enable-background:new 0 0 32 32;" xml:space="preserve">
<style type="text/css">
	.st0{display:none;}
	.st1{display:inline;fill:none;stroke:#000000;stroke-width:2;stroke-linecap:round;stroke-linejoin:round;stroke-miterlimit:10;}
	.st2{display:inline;fill:none;stroke:#000000;stroke-width:3;stroke-linecap:round;stroke-linejoin:round;stroke-miterlimit:10;}
	.st3{display:inline;}
	.st4{fill:#FFFFFF;stroke:#12895B;stroke-miterlimit:10;}
	.st5{fill:none;stroke:#000000;stroke-miterlimit:10;}
	.st6{fill:#FFFFFF;stroke:#000000;stroke-miterlimit:10;}
	.st7{fill:none;stroke:#B2B2B2;stroke-miterlimit:10;}
	.st8{fill:#EAEAEA;}
	.st9{fill:#B2B2B2;}
	.st10{fill:none;stroke:#000000;stroke-width:3;stroke-linecap:round;stroke-linejoin:round;stroke-miterlimit:10;}
	.st11{fill:#F1F1F1;}
	.st12{fill:#C6C6C6;}
	.st13{fill:none;stroke:#12895B;stroke-miterlimit:10;}
	.st14{fill:#FFFFFF;}
	.st15{fill:#FFFFFF;stroke:#876868;stroke-miterlimit:10;}
	.st16{fill:#604A5B;}
	.st17{fill:none;stroke:#FFFFFF;stroke-miterlimit:10;}
	.st18{fill:none;stroke:#FFFBF5;stroke-miterlimit:10;}
	.st19{fill:#FFFBF5;}
	.st20{fill:none;stroke:#FFFBF5;stroke-width:4;stroke-miterlimit:10;}
	.st21{fill:none;stroke:#604A5B;stroke-width:2;stroke-miterlimit:10;}
	.st22{fill:none;stroke:#FFFBF5;stroke-linecap:round;stroke-miterlimit:10;}
	.st23{fill:#FFFBF5;stroke:#604A5B;stroke-width:2;stroke-miterlimit:10;}
	.st24{clip-path:url(#SVGID_4_);}
	.st25{clip-path:url(#SVGID_9_);}
	.st26{clip-path:url(#SVGID_10_);}
	.st27{clip-path:url(#SVGID_10_);fill:#FFFFFF;}
	.st28{opacity:0.8;clip-path:url(#SVGID_10_);fill:#443939;}
	.st29{fill:none;stroke:#FFFBF5;stroke-width:1.143;stroke-linecap:round;stroke-linejoin:round;stroke-miterlimit:10;}
	.st30{fill:none;stroke:#B7B7B7;stroke-miterlimit:10;}
	.st31{fill:none;stroke:#604A5B;stroke-miterlimit:10;}
	.st32{fill:none;stroke:#FFFBF5;stroke-width:0.8924;stroke-linejoin:round;stroke-miterlimit:10;}
	.st33{fill:#FFFBF5;stroke:#604A5B;stroke-miterlimit:10;}
	.st34{fill:none;stroke:#FFFBF5;stroke-linecap:round;stroke-linejoin:round;stroke-miterlimit:10;}
	.st35{fill:#FFFBF5;stroke:#604A5B;stroke-width:3;stroke-linecap:round;stroke-linejoin:round;stroke-miterlimit:10;}
	.st36{opacity:0.2;fill:#604A5B;}
	.st37{fill:#F7F0E7;}
	.st38{fill:#30382E;}
	.st39{fill:none;stroke:#30382E;stroke-width:2;stroke-linecap:round;stroke-linejoin:round;stroke-miterlimit:10;}
	.st40{fill:none;stroke:#30382E;stroke-width:2;stroke-linejoin:round;stroke-miterlimit:10;}
	.st41{fill:none;stroke:#30382E;stroke-width:0.8;stroke-linejoin:round;stroke-miterlimit:10;}
	.st42{fill:#ED3A21;}
	.st43{fill:none;stroke:#ED3A21;stroke-width:1.143;stroke-linecap:round;stroke-linejoin:round;stroke-miterlimit:10;}
	.st44{fill:none;stroke:#ED3A21;stroke-linecap:round;stroke-miterlimit:10;}
	.st45{fill:none;stroke:#ED3A21;stroke-width:0.8924;stroke-linejoin:round;stroke-miterlimit:10;}
	.st46{fill:none;stroke:#ED3A21;stroke-miterlimit:10;}
	.st47{fill:none;stroke:#ED3A21;stroke-linecap:round;stroke-linejoin:round;stroke-miterlimit:10;}
	.st48{fill:none;stroke:#FFFBF5;stroke-width:3;stroke-miterlimit:10;}
	.st49{opacity:0.3;}
	.st50{opacity:0.9;fill:#2B2229;}
	.st51{fill:#3F353D;}
	.st52{opacity:0.9;fill:none;stroke:#2B2229;stroke-miterlimit:10;}
	.st53{fill:#776473;}
	.st54{fill:none;stroke:#876868;stroke-miterlimit:10;}
</style>
<g id="back-up-icons" class="st0">
</g>
<g id="background">
	<g id="Layer_6" class="st0">
	</g>
	<g>
		<g>
			<path class="st16" d="M10.4,8.8c3.2,0,5.9,1.8,7.2,4.5c1.1-0.9,2.6-1.4,4.1-1.4c2.9,0,5.4,1.9,6.3,4.6c0.2,0.5,0.3,1,0.3,1.6
				c0,0.1,0,0.1,0,0.2c0,0,0,0,0,0h0c-0.1,2.1-1.8,3.8-4,3.8H6.3c-2.2,0-4-1.8-4-4c0-0.1,0-0.3,0-0.4c0-0.2,0-0.4,0-0.6
				C2.3,12.4,6,8.8,10.4,8.8 M10.4,6.9c-5.5,0-10,4.5-10,10c0,0.2,0,0.4,0,0.6c0,0.2,0,0.3,0,0.4c0,3.2,2.6,5.9,5.9,5.9h18.1
				c3,0,5.5-2.3,5.8-5.3l0-0.1l0-0.3c0-0.1,0-0.1,0-0.2c0-0.8-0.1-1.5-0.4-2.2c-1.2-3.5-4.4-5.8-8-5.8c-1.2,0-2.4,0.3-3.5,0.8
				C16.4,8.3,13.5,6.9,10.4,6.9L10.4,6.9z"/>
		</g>
		<path class="st23" d="M30.9,13.9c0,1.2-0.9,2.1-2.1,2.1c-1.2,0-2.1-0.9-2.1-2.1s2.1-4.3,2.1-4.3S30.9,12.7,30.9,13.9z"/>
		<path class="st23" d="M25.7,23c0,1.2-0.9,2.1-2.1,2.1c-1.2,0-2.1-0.9-2.1-2.1s2.1-4.3,2.1-4.3S25.7,21.8,25.7,23z"/>
		<path class="st23" d="M20.6,13.9c0,1.2-0.9,2.1-2.1,2.1s-2.1-0.9-2.1-2.1s2.1-4.3,2.1-4.3S20.6,12.7,20.6,13.9z"/>
	</g>
</g>
<g id="content">
</g>
<g id="window">
</g>
<g id="outline">
</g>
</svg>
