<?xml version="1.0" encoding="utf-8"?>
<!-- Generator: Adobe Illustrator 19.1.0, SVG Export Plug-In . SVG Version: 6.00 Build 0)  -->
<svg version="1.1" xmlns="http://www.w3.org/2000/svg" xmlns:xlink="http://www.w3.org/1999/xlink" x="0px" y="0px"
	 viewBox="0 0 32 32" style="enable-background:new 0 0 32 32;" xml:space="preserve">
<style type="text/css">
	.st0{display:none;}
	.st1{display:inline;fill:none;stroke:#000000;stroke-width:2;stroke-linecap:round;stroke-linejoin:round;stroke-miterlimit:10;}
	.st2{display:inline;fill:none;stroke:#000000;stroke-width:3;stroke-linecap:round;stroke-linejoin:round;stroke-miterlimit:10;}
	.st3{display:inline;}
	.st4{fill:#FFFFFF;stroke:#12895B;stroke-miterlimit:10;}
	.st5{fill:none;stroke:#000000;stroke-miterlimit:10;}
	.st6{fill:#FFFFFF;stroke:#000000;stroke-miterlimit:10;}
	.st7{fill:none;stroke:#B2B2B2;stroke-miterlimit:10;}
	.st8{fill:#EAEAEA;}
	.st9{fill:#B2B2B2;}
	.st10{fill:none;stroke:#000000;stroke-width:3;stroke-linecap:round;stroke-linejoin:round;stroke-miterlimit:10;}
	.st11{fill:#F1F1F1;}
	.st12{fill:#C6C6C6;}
	.st13{fill:none;stroke:#12895B;stroke-miterlimit:10;}
	.st14{fill:#FFFFFF;}
	.st15{fill:#FFFFFF;stroke:#876868;stroke-miterlimit:10;}
	.st16{fill:#604A5B;}
	.st17{fill:none;stroke:#FFFFFF;stroke-miterlimit:10;}
	.st18{fill:none;stroke:#FFFBF5;stroke-miterlimit:10;}
	.st19{fill:#FFFBF5;}
	.st20{fill:none;stroke:#FFFBF5;stroke-width:4;stroke-miterlimit:10;}
	.st21{fill:none;stroke:#604A5B;stroke-width:2;stroke-miterlimit:10;}
	.st22{fill:none;stroke:#FFFBF5;stroke-linecap:round;stroke-miterlimit:10;}
	.st23{fill:#FFFBF5;stroke:#604A5B;stroke-width:2;stroke-miterlimit:10;}
	.st24{clip-path:url(#SVGID_4_);}
	.st25{clip-path:url(#SVGID_9_);}
	.st26{clip-path:url(#SVGID_10_);}
	.st27{clip-path:url(#SVGID_10_);fill:#FFFFFF;}
	.st28{opacity:0.8;clip-path:url(#SVGID_10_);fill:#443939;}
	.st29{fill:none;stroke:#FFFBF5;stroke-width:1.143;stroke-linecap:round;stroke-linejoin:round;stroke-miterlimit:10;}
	.st30{fill:none;stroke:#B7B7B7;stroke-miterlimit:10;}
	.st31{fill:none;stroke:#604A5B;stroke-miterlimit:10;}
	.st32{fill:none;stroke:#FFFBF5;stroke-width:0.8924;stroke-linejoin:round;stroke-miterlimit:10;}
	.st33{fill:#FFFBF5;stroke:#604A5B;stroke-miterlimit:10;}
	.st34{fill:none;stroke:#FFFBF5;stroke-linecap:round;stroke-linejoin:round;stroke-miterlimit:10;}
	.st35{fill:#FFFBF5;stroke:#604A5B;stroke-width:3;stroke-linecap:round;stroke-linejoin:round;stroke-miterlimit:10;}
	.st36{opacity:0.2;fill:#604A5B;}
	.st37{fill:#F7F0E7;}
	.st38{fill:#30382E;}
	.st39{fill:none;stroke:#30382E;stroke-width:2;stroke-linecap:round;stroke-linejoin:round;stroke-miterlimit:10;}
	.st40{fill:none;stroke:#30382E;stroke-width:2;stroke-linejoin:round;stroke-miterlimit:10;}
	.st41{fill:none;stroke:#30382E;stroke-width:0.8;stroke-linejoin:round;stroke-miterlimit:10;}
	.st42{fill:#ED3A21;}
	.st43{fill:none;stroke:#ED3A21;stroke-width:1.143;stroke-linecap:round;stroke-linejoin:round;stroke-miterlimit:10;}
	.st44{fill:none;stroke:#ED3A21;stroke-linecap:round;stroke-miterlimit:10;}
	.st45{fill:none;stroke:#ED3A21;stroke-width:0.8924;stroke-linejoin:round;stroke-miterlimit:10;}
	.st46{fill:none;stroke:#ED3A21;stroke-miterlimit:10;}
	.st47{fill:none;stroke:#ED3A21;stroke-linecap:round;stroke-linejoin:round;stroke-miterlimit:10;}
	.st48{fill:none;stroke:#FFFBF5;stroke-width:3;stroke-miterlimit:10;}
	.st49{opacity:0.3;}
	.st50{opacity:0.9;fill:#2B2229;}
	.st51{fill:#3F353D;}
	.st52{opacity:0.9;fill:none;stroke:#2B2229;stroke-miterlimit:10;}
	.st53{fill:#776473;}
	.st54{fill:none;stroke:#876868;stroke-miterlimit:10;}
</style>
<g id="back-up-icons" class="st0">
</g>
<g id="background">
	<g id="Layer_6" class="st0">
	</g>
	<g>
		<g>
			<path class="st16" d="M10.5,8.6c3.1,0,5.8,1.8,7.1,4.4c1.1-0.9,2.5-1.4,4-1.4c2.9,0,5.3,1.9,6.1,4.5c0.2,0.5,0.3,1,0.3,1.5
				c0,0.1,0,0.1,0,0.2c0,0,0,0,0,0h0c-0.1,2.1-1.8,3.7-3.9,3.7H6.5c-2.1,0-3.9-1.7-3.9-3.9c0-0.1,0-0.3,0-0.4c0-0.2,0-0.4,0-0.6
				C2.6,12.2,6.2,8.6,10.5,8.6 M10.5,6.8c-5.4,0-9.8,4.4-9.8,9.8c0,0.2,0,0.4,0,0.6c0,0.1,0,0.3,0,0.4c0,3.2,2.6,5.7,5.7,5.7h17.7
				c3,0,5.4-2.2,5.7-5.2L30,18l0-0.3c0,0,0-0.1,0-0.1c0-0.8-0.1-1.5-0.4-2.2c-1.1-3.4-4.3-5.7-7.9-5.7c-1.2,0-2.4,0.3-3.4,0.7
				C16.4,8.2,13.6,6.8,10.5,6.8L10.5,6.8z"/>
		</g>
		<path class="st23" d="M30.6,13.6c0,1.1-0.9,2.1-2.1,2.1s-2.1-0.9-2.1-2.1s2.1-4.2,2.1-4.2S30.6,12.4,30.6,13.6z"/>
		<path class="st23" d="M25.5,22.5c0,1.1-0.9,2.1-2.1,2.1s-2.1-0.9-2.1-2.1s2.1-4.2,2.1-4.2S25.5,21.4,25.5,22.5z"/>
		<g>
			<polyline class="st19" points="10.9,10.4 8.7,14.9 10.9,14.9 9.1,19.7 			"/>
			<path class="st16" d="M10.9,10.4c0,0.4-0.1,0.9-0.2,1.3c-0.1,0.4-0.2,0.8-0.3,1.2c-0.2,0.8-0.5,1.6-0.9,2.4L8.7,14
				c0.7,0,1.5,0,2.2,0l1.4,0.1l-0.5,1.2c-0.3,0.8-0.7,1.5-1.2,2.3c-0.2,0.4-0.4,0.7-0.7,1.1c-0.2,0.4-0.5,0.7-0.8,1
				c0-0.5,0-0.9,0.1-1.3c0-0.4,0.1-0.9,0.2-1.3c0.2-0.8,0.4-1.7,0.7-2.5l0.8,1.2c-0.7,0-1.5,0-2.2,0l-1.5-0.1l0.7-1.2
				c0.4-0.7,0.8-1.4,1.3-2.1c0.3-0.3,0.5-0.7,0.8-1C10.3,11.1,10.6,10.7,10.9,10.4z"/>
		</g>
		<path class="st23" d="M20.7,13.6c0,1.1-0.9,2.1-2.1,2.1c-1.1,0-2.1-0.9-2.1-2.1s2.1-4.2,2.1-4.2S20.7,12.4,20.7,13.6z"/>
	</g>
</g>
<g id="content">
</g>
<g id="window">
</g>
<g id="outline">
</g>
</svg>
