<?xml version="1.0" encoding="utf-8"?>
<!-- Generator: Adobe Illustrator 19.1.0, SVG Export Plug-In . SVG Version: 6.00 Build 0)  -->
<svg version="1.1" id="Layer_1" xmlns="http://www.w3.org/2000/svg" xmlns:xlink="http://www.w3.org/1999/xlink" x="0px" y="0px"
	 viewBox="-421 222 117 117" style="enable-background:new -421 222 117 117;" xml:space="preserve">
<style type="text/css">
	.st0{fill:#FFFBF5;}
</style>
<g>
	<path class="st0" d="M-354.8,294.6c-13.5,0.2-24.9-11-24.9-24.5c0-3.3,0.7-6.5,1.9-9.4c0.6-1.5-1-3-2.4-2.3
		c-8.6,4.1-14.4,13-13.9,23.2c0.6,13.1,11.4,23.5,24.5,23.4c6.4,0,12.3-2.5,16.6-6.6c1.5-1.4,0.5-3.9-1.6-3.8
		C-354.6,294.6-354.7,294.6-354.8,294.6z"/>
	<g>
		<path class="st0" d="M-331.4,260.6c-1.5,0.5-2.2,1.2-2.7,2.7c-0.2,0.7-1.2,0.7-1.4,0c-0.5-1.5-1.2-2.2-2.7-2.7
			c-0.7-0.2-0.7-1.2,0-1.4c1.5-0.5,2.2-1.2,2.7-2.7c0.2-0.7,1.2-0.7,1.4,0c0.5,1.5,1.2,2.2,2.7,2.7
			C-330.7,259.4-330.7,260.4-331.4,260.6z"/>
		<path class="st0" d="M-331.4,260.6c-1.5,0.5-2.2,1.2-2.7,2.7c-0.2,0.7-1.2,0.7-1.4,0c-0.5-1.5-1.2-2.2-2.7-2.7
			c-0.7-0.2-0.7-1.2,0-1.4c1.5-0.5,2.2-1.2,2.7-2.7c0.2-0.7,1.2-0.7,1.4,0c0.5,1.5,1.2,2.2,2.7,2.7
			C-330.7,259.4-330.7,260.4-331.4,260.6z"/>
	</g>
	<g>
		<path class="st0" d="M-358.4,264.3c-2.4,0.7-3.4,1.7-4.1,4.1c-0.2,0.8-1.3,0.8-1.5,0c-0.7-2.4-1.7-3.4-4.1-4.1
			c-0.8-0.2-0.8-1.3,0-1.5c2.4-0.7,3.4-1.7,4.1-4.1c0.2-0.8,1.3-0.8,1.5,0c0.7,2.4,1.7,3.4,4.1,4.1
			C-357.6,263.1-357.6,264.1-358.4,264.3z"/>
		<path class="st0" d="M-358.4,264.3c-2.4,0.7-3.4,1.7-4.1,4.1c-0.2,0.8-1.3,0.8-1.5,0c-0.7-2.4-1.7-3.4-4.1-4.1
			c-0.8-0.2-0.8-1.3,0-1.5c2.4-0.7,3.4-1.7,4.1-4.1c0.2-0.8,1.3-0.8,1.5,0c0.7,2.4,1.7,3.4,4.1,4.1
			C-357.6,263.1-357.6,264.1-358.4,264.3z"/>
	</g>
	<g>
		<path class="st0" d="M-340.8,282.1c-1.3,0.4-2,1.1-2.4,2.4c-0.2,0.5-0.9,0.5-1.1,0c-0.4-1.3-1.1-2-2.4-2.4c-0.5-0.2-0.5-0.9,0-1.1
			c1.3-0.4,2-1.1,2.4-2.4c0.2-0.5,0.9-0.5,1.1,0c0.4,1.3,1.1,2,2.4,2.4C-340.3,281.2-340.3,282-340.8,282.1z"/>
		<path class="st0" d="M-340.8,282.1c-1.3,0.4-2,1.1-2.4,2.4c-0.2,0.5-0.9,0.5-1.1,0c-0.4-1.3-1.1-2-2.4-2.4c-0.5-0.2-0.5-0.9,0-1.1
			c1.3-0.4,2-1.1,2.4-2.4c0.2-0.5,0.9-0.5,1.1,0c0.4,1.3,1.1,2,2.4,2.4C-340.3,281.2-340.3,282-340.8,282.1z"/>
	</g>
</g>
</svg>
