<?xml version="1.0" encoding="utf-8"?>
<!-- Generator: Adobe Illustrator 19.1.0, SVG Export Plug-In . SVG Version: 6.00 Build 0)  -->
<svg version="1.1" xmlns="http://www.w3.org/2000/svg" xmlns:xlink="http://www.w3.org/1999/xlink" x="0px" y="0px"
	 viewBox="0 0 32 32" style="enable-background:new 0 0 32 32;" xml:space="preserve">
<style type="text/css">
	.st0{display:none;}
	.st1{display:inline;fill:none;stroke:#000000;stroke-width:2;stroke-linecap:round;stroke-linejoin:round;stroke-miterlimit:10;}
	.st2{display:inline;fill:none;stroke:#000000;stroke-width:3;stroke-linecap:round;stroke-linejoin:round;stroke-miterlimit:10;}
	.st3{display:inline;}
	.st4{fill:#FFFFFF;stroke:#12895B;stroke-miterlimit:10;}
	.st5{fill:none;stroke:#000000;stroke-miterlimit:10;}
	.st6{fill:#FFFFFF;stroke:#000000;stroke-miterlimit:10;}
	.st7{fill:none;stroke:#B2B2B2;stroke-miterlimit:10;}
	.st8{fill:#EAEAEA;}
	.st9{fill:#B2B2B2;}
	.st10{fill:none;stroke:#000000;stroke-width:3;stroke-linecap:round;stroke-linejoin:round;stroke-miterlimit:10;}
	.st11{fill:#F1F1F1;}
	.st12{fill:#C6C6C6;}
	.st13{fill:none;stroke:#12895B;stroke-miterlimit:10;}
	.st14{fill:#FFFFFF;}
	.st15{fill:#FFFFFF;stroke:#876868;stroke-miterlimit:10;}
	.st16{fill:#604A5B;}
	.st17{fill:none;stroke:#FFFFFF;stroke-miterlimit:10;}
	.st18{fill:none;stroke:#FFFBF5;stroke-miterlimit:10;}
	.st19{fill:#FFFBF5;}
	.st20{fill:none;stroke:#FFFBF5;stroke-width:4;stroke-miterlimit:10;}
	.st21{fill:none;stroke:#604A5B;stroke-width:2;stroke-miterlimit:10;}
	.st22{fill:none;stroke:#FFFBF5;stroke-linecap:round;stroke-miterlimit:10;}
	.st23{fill:#FFFBF5;stroke:#604A5B;stroke-width:2;stroke-miterlimit:10;}
	.st24{clip-path:url(#SVGID_4_);}
	.st25{clip-path:url(#SVGID_9_);}
	.st26{clip-path:url(#SVGID_10_);}
	.st27{clip-path:url(#SVGID_10_);fill:#FFFFFF;}
	.st28{opacity:0.8;clip-path:url(#SVGID_10_);fill:#443939;}
	.st29{fill:none;stroke:#FFFBF5;stroke-width:1.143;stroke-linecap:round;stroke-linejoin:round;stroke-miterlimit:10;}
	.st30{fill:none;stroke:#B7B7B7;stroke-miterlimit:10;}
	.st31{fill:none;stroke:#604A5B;stroke-miterlimit:10;}
	.st32{fill:none;stroke:#FFFBF5;stroke-width:0.8924;stroke-linejoin:round;stroke-miterlimit:10;}
	.st33{fill:#FFFBF5;stroke:#604A5B;stroke-miterlimit:10;}
	.st34{fill:none;stroke:#FFFBF5;stroke-linecap:round;stroke-linejoin:round;stroke-miterlimit:10;}
	.st35{fill:#FFFBF5;stroke:#604A5B;stroke-width:3;stroke-linecap:round;stroke-linejoin:round;stroke-miterlimit:10;}
	.st36{opacity:0.2;fill:#604A5B;}
	.st37{fill:#F7F0E7;}
	.st38{fill:#30382E;}
	.st39{fill:none;stroke:#30382E;stroke-width:2;stroke-linecap:round;stroke-linejoin:round;stroke-miterlimit:10;}
	.st40{fill:none;stroke:#30382E;stroke-width:2;stroke-linejoin:round;stroke-miterlimit:10;}
	.st41{fill:none;stroke:#30382E;stroke-width:0.8;stroke-linejoin:round;stroke-miterlimit:10;}
	.st42{fill:#ED3A21;}
	.st43{fill:none;stroke:#ED3A21;stroke-width:1.143;stroke-linecap:round;stroke-linejoin:round;stroke-miterlimit:10;}
	.st44{fill:none;stroke:#ED3A21;stroke-linecap:round;stroke-miterlimit:10;}
	.st45{fill:none;stroke:#ED3A21;stroke-width:0.8924;stroke-linejoin:round;stroke-miterlimit:10;}
	.st46{fill:none;stroke:#ED3A21;stroke-miterlimit:10;}
	.st47{fill:none;stroke:#ED3A21;stroke-linecap:round;stroke-linejoin:round;stroke-miterlimit:10;}
	.st48{fill:none;stroke:#FFFBF5;stroke-width:3;stroke-miterlimit:10;}
	.st49{opacity:0.3;}
	.st50{opacity:0.9;fill:#2B2229;}
	.st51{fill:#3F353D;}
	.st52{opacity:0.9;fill:none;stroke:#2B2229;stroke-miterlimit:10;}
	.st53{fill:#776473;}
	.st54{fill:none;stroke:#876868;stroke-miterlimit:10;}
</style>
<g id="back-up-icons" class="st0">
</g>
<g id="background">
	<g id="Layer_6" class="st0">
	</g>
	<g>
		<g>
			<path class="st16" d="M10.8,9.1c3.3,0,6.2,1.9,7.6,4.7c1.2-0.9,2.7-1.5,4.3-1.5c3.1,0,5.7,2,6.6,4.8c0.2,0.5,0.3,1.1,0.3,1.7
				c0,0.1,0,0.1,0,0.2c0,0,0,0,0,0h0c-0.1,2.2-1.9,4-4.2,4H6.5c-2.3,0-4.2-1.9-4.2-4.2c0-0.2,0-0.3,0-0.4c0-0.2,0-0.4,0-0.7
				C2.3,12.9,6.1,9.1,10.8,9.1 M10.8,7.1C5,7.1,0.3,11.8,0.3,17.6c0,0.2,0,0.4,0,0.6c0,0.2,0,0.3,0,0.5c0,3.4,2.8,6.2,6.2,6.2h19.1
				c3.2,0,5.8-2.4,6.1-5.6l0.1-0.1l0-0.3c0-0.1,0-0.1,0-0.2c0-0.8-0.2-1.6-0.5-2.4c-1.2-3.7-4.6-6.1-8.5-6.1c-1.3,0-2.5,0.3-3.7,0.8
				C17.1,8.6,14.1,7.1,10.8,7.1L10.8,7.1z"/>
		</g>
	</g>
</g>
<g id="content">
</g>
<g id="window">
</g>
<g id="outline">
</g>
</svg>
