<?xml version="1.0" encoding="utf-8"?>
<!-- Generator: Adobe Illustrator 19.1.0, SVG Export Plug-In . SVG Version: 6.00 Build 0)  -->
<svg version="1.1" id="Layer_1" xmlns="http://www.w3.org/2000/svg" xmlns:xlink="http://www.w3.org/1999/xlink" x="0px" y="0px"
	 viewBox="-454 256 50 50" style="enable-background:new -454 256 50 50;" xml:space="preserve">
<style type="text/css">
	.st0{display:none;}
	.st1{fill:#FFFBF5;}
</style>
<g id="back-up-icons" class="st0">
</g>
<g id="content">
	<g>
		<g>
			<g>
				<path class="st1" d="M-426.4,290.8l-14-14c-0.4-0.4-0.4-1.1,0-1.6l3.3-3.3c0.4-0.4,1.1-0.4,1.6,0l14,14l-0.7,0.7l-14-14
					c0,0-0.1-0.1-0.2,0l-3.3,3.3c0,0,0,0.1,0,0.2l14,14L-426.4,290.8z"/>
			</g>
			<g>
				
					<rect x="-436.9" y="273.1" transform="matrix(-0.7071 -0.7071 0.7071 -0.7071 -940.1647 162.5595)" class="st1" width="1" height="5.8"/>
			</g>
			<g>
				
					<rect x="-435.5" y="274.5" transform="matrix(-0.7071 -0.7071 0.7071 -0.7071 -938.7809 165.9548)" class="st1" width="1" height="5.8"/>
			</g>
			<g>
				
					<rect x="-437.6" y="277.1" transform="matrix(-0.7071 -0.7071 0.7071 -0.7071 -941.6856 165.1664)" class="st1" width="1.9" height="1"/>
			</g>
			<g>
				
					<rect x="-435.1" y="274.6" transform="matrix(-0.7072 -0.707 0.707 -0.7072 -935.7222 162.6858)" class="st1" width="1.9" height="1"/>
			</g>
			<g>
				<path class="st1" d="M-421.6,292.1L-421.6,292.1l-4.7-1.2l-0.9-0.9l0.4-0.4c0.3-0.4,0.7-0.4,1-0.4c0.2,0,0.3,0,0.4-0.1
					c0.1-0.1,0.1-0.2,0.1-0.4c0-0.3,0-0.7,0.4-1.1c0.4-0.4,0.8-0.4,1.1-0.4c0.2,0,0.3,0,0.4-0.1c0.1-0.1,0.1-0.2,0.1-0.4
					c0-0.3,0-0.7,0.4-1.1l0.4-0.4l0.9,0.9l1.2,4.5c0,0.5-0.1,0.9-0.4,1.1C-420.9,292-421.2,292.1-421.6,292.1z M-425.3,290.1l3.8,1
					c0,0,0.1-0.1,0.2-0.1s0.1-0.1,0.1-0.3l-1-3.7c-0.1,0.2-0.2,0.4-0.4,0.6c-0.4,0.4-0.8,0.4-1.1,0.4c-0.2,0-0.3,0-0.4,0.1
					c-0.1,0.1-0.1,0.2-0.1,0.4c0,0.3,0,0.7-0.4,1.1C-424.9,290-425.1,290.1-425.3,290.1z"/>
			</g>
			<g>
				<path class="st1" d="M-422.3,291.5l-1-0.3c0.5-1.6,2-2.1,2.1-2.1l0.3,1l-0.1-0.5l0.1,0.5C-421,290.1-422,290.4-422.3,291.5z"/>
			</g>
		</g>
		<g>
			<polygon class="st1" points="-419.3,282.9 -422.3,282.9 -422.3,281.9 -420.3,281.9 -420.3,272.9 -430.3,272.9 -430.3,273.9 
				-431.3,273.9 -431.3,271.9 -419.3,271.9 			"/>
		</g>
		<g>
			<polygon class="st1" points="-417.3,280.9 -419.3,280.9 -419.3,279.9 -418.3,279.9 -418.3,270.9 -428.3,270.9 -428.3,271.9 
				-429.3,271.9 -429.3,269.9 -417.3,269.9 			"/>
		</g>
		<g>
			<rect x="-431.3" y="273.9" class="st1" width="11" height="1"/>
		</g>
		<g>
			<rect x="-428.3" y="271.9" class="st1" width="10" height="1"/>
		</g>
	</g>
</g>
<g id="window">
</g>
<g id="outline">
</g>
</svg>
