<?xml version="1.0" encoding="utf-8"?>
<!-- Generator: Adobe Illustrator 19.1.0, SVG Export Plug-In . SVG Version: 6.00 Build 0)  -->
<svg version="1.1" id="Layer_1" xmlns="http://www.w3.org/2000/svg" xmlns:xlink="http://www.w3.org/1999/xlink" x="0px" y="0px"
	 viewBox="-463 265 32 32" style="enable-background:new -463 265 32 32;" xml:space="preserve">
<style type="text/css">
	.st0{fill:#FFFBF5;}
</style>
<g id="content">
	<g>
		<g>
			<g>
				<polygon class="st0" points="-438.5,289.5 -455.5,289.5 -455.5,279.2 -453.1,279.2 -453.1,280.2 -454.5,280.2 -454.5,288.5 
					-439.5,288.5 -439.5,280.2 -440.9,280.2 -440.9,279.2 -438.5,279.2 				"/>
			</g>
			<g>
				<polygon class="st0" points="-447,285.7 -455.3,280.1 -454.7,279.3 -447,284.5 -439.3,279.3 -438.7,280.1 				"/>
			</g>
			<g>
				<polygon class="st0" points="-447,285.7 -455.3,280.1 -454.7,279.3 -447,284.5 -439.3,279.3 -438.7,280.1 				"/>
			</g>
			<g>
				
					<rect x="-452.7" y="282.2" transform="matrix(0.7197 0.6943 -0.6943 0.7197 71.8822 394.1839)" class="st0" width="1" height="7.9"/>
			</g>
			<g>
				
					<rect x="-445.6" y="285.7" transform="matrix(0.6941 0.7199 -0.7199 0.6941 70.9143 405.4915)" class="st0" width="7.9" height="1"/>
			</g>
			<g>
				
					<rect x="-440.7" y="278.7" transform="matrix(0.8516 0.5242 -0.5242 0.8516 81.0923 271.955)" class="st0" width="1.9" height="1"/>
			</g>
			<g>
				
					<rect x="-454.5" y="277.8" transform="matrix(0.557 0.8305 -0.8305 0.557 30.5764 500.6573)" class="st0" width="1" height="2.3"/>
			</g>
			<g>
				<polygon class="st0" points="-452.6,280.9 -453.6,280.9 -453.6,272.5 -440.1,272.5 -440.1,280.8 -441.1,280.8 -441.1,273.5 
					-452.6,273.5 				"/>
			</g>
		</g>
		<g>
			<rect x="-451.4" y="275.3" class="st0" width="2.6" height="1"/>
		</g>
		<g>
			<rect x="-447.2" y="275.3" class="st0" width="4.4" height="1"/>
		</g>
		<g>
			<rect x="-448" y="277.6" class="st0" width="5.1" height="1"/>
		</g>
		<g>
			<rect x="-451.4" y="277.6" class="st0" width="1.8" height="1"/>
		</g>
		<g>
			<rect x="-451.4" y="279.9" class="st0" width="8.5" height="1"/>
		</g>
	</g>
</g>
</svg>
