<?xml version="1.0" encoding="utf-8"?>
<!-- Generator: Adobe Illustrator 19.1.0, SVG Export Plug-In . SVG Version: 6.00 Build 0)  -->
<svg version="1.1" id="Layer_1" xmlns="http://www.w3.org/2000/svg" xmlns:xlink="http://www.w3.org/1999/xlink" x="0px" y="0px"
	 viewBox="-454 256 50 50" style="enable-background:new -454 256 50 50;" xml:space="preserve">
<style type="text/css">
	.st0{opacity:0.3;}
	.st1{fill:#FFFBF5;}
</style>
<g id="back-up-icons">
</g>
<g id="Layer_6">
</g>
<g id="content">
	<g>
		<g class="st0">
			<path class="st1" d="M-428,278.8c0.4,1.2,0.8,2.3,1.4,3.3c1.2-0.7,2.5-1.7,3.4-2.5l1.1,1c-0.1,0.1-0.2,0.1-0.4,0.1
				c-0.9,0.7-2.3,1.6-3.5,2.3c1.3,1.7,2.9,3.1,5,3.7c-0.3,0.2-0.6,0.7-0.8,1c-3.6-1.3-5.9-4.5-7.1-8.5c-0.6,0.4-1.2,0.8-1.9,1.2
				c2.4,1.7,3.4,4,3.4,5.7c0,1.9-1.2,3-3,3c-0.4,0-1,0-1.6-0.1c0-0.3-0.1-0.8-0.3-1.1c0.6,0.1,1.3,0.1,1.6,0.1c0.5,0,0.9,0,1.3-0.3
				c0.5-0.3,0.8-1,0.8-1.8c0-0.5-0.1-1-0.3-1.6c-1.9,1.7-4.9,3.3-7.5,4.2c-0.1-0.3-0.4-0.7-0.6-1c2.7-0.7,5.9-2.4,7.6-4.1
				c-0.2-0.4-0.5-0.7-0.8-1.1c-1.5,1.1-3.9,2.3-5.7,3c-0.1-0.3-0.4-0.7-0.6-0.9c1.9-0.5,4.3-1.7,5.7-2.7c-0.3-0.3-0.6-0.5-1-0.8
				c-1.3,0.6-2.7,1.1-4.1,1.5c-0.1-0.2-0.4-0.7-0.6-0.9c2.2-0.5,4.6-1.5,6.3-2.6h-4.1v-1h10v1h-3.7L-428,278.8L-428,278.8z
				 M-435.4,276v2.4h-1.1V275h6.7v-2.1l1.6,0.1c0,0.1-0.1,0.2-0.4,0.2v1.7h6.8v3.4h-1.2V276H-435.4z"/>
		</g>
	</g>
</g>
<g id="window">
</g>
<g id="outline">
</g>
</svg>
