<?xml version="1.0" encoding="utf-8"?>
<!-- Generator: Adobe Illustrator 19.1.0, SVG Export Plug-In . SVG Version: 6.00 Build 0)  -->
<svg version="1.1" id="Layer_1" xmlns="http://www.w3.org/2000/svg" xmlns:xlink="http://www.w3.org/1999/xlink" x="0px" y="0px"
	 viewBox="-454 256 50 50" style="enable-background:new -454 256 50 50;" xml:space="preserve">
<style type="text/css">
	.st0{fill:#FFFBF5;}
</style>
<g>
	<g>
		<g>
			<path class="st0" d="M-417.8,290.1c-1.1,0-2.1-0.9-2.1-2.1c0-1.1,0.9-2.1,2.1-2.1s2.1,0.9,2.1,2.1
				C-415.8,289.1-416.7,290.1-417.8,290.1z M-417.8,286.9c-0.6,0-1.1,0.5-1.1,1.1s0.5,1.1,1.1,1.1s1.1-0.5,1.1-1.1
				C-416.8,287.4-417.2,286.9-417.8,286.9z"/>
		</g>
		<g>
			<path class="st0" d="M-423.5,290.1c-1.1,0-2.1-0.9-2.1-2.1c0-1.1,0.9-2.1,2.1-2.1c1.1,0,2.1,0.9,2.1,2.1
				C-421.5,289.1-422.4,290.1-423.5,290.1z M-423.5,286.9c-0.6,0-1.1,0.5-1.1,1.1s0.5,1.1,1.1,1.1s1.1-0.5,1.1-1.1
				C-422.5,287.4-423,286.9-423.5,286.9z"/>
		</g>
		<g>
			<path class="st0" d="M-429.3,290.1c-1.1,0-2.1-0.9-2.1-2.1c0-1.1,0.9-2.1,2.1-2.1c1.1,0,2.1,0.9,2.1,2.1
				C-427.2,289.1-428.1,290.1-429.3,290.1z M-429.3,286.9c-0.6,0-1.1,0.5-1.1,1.1s0.5,1.1,1.1,1.1s1.1-0.5,1.1-1.1
				S-428.7,286.9-429.3,286.9z"/>
		</g>
	</g>
	<g>
		<g>
			<path class="st0" d="M-429.8,272.9c0.5,0,1,0.1,1.4,0.2l-3,3l0.4,2.2l2.2,0.5l3-3c0.5,1.5,0.2,3.3-1,4.5c-0.9,0.9-2,1.3-3.1,1.3
				c-0.6,0-1.2-0.1-1.8-0.4l-7,7c-0.3,0.3-0.7,0.5-1.1,0.5s-0.8-0.2-1.1-0.5c-0.6-0.6-0.6-1.6,0-2.2l7-7c-0.7-1.6-0.4-3.6,0.9-4.9
				C-432,273.4-430.9,272.9-429.8,272.9 M-439.6,287.8c0.2,0,0.3-0.1,0.5-0.2c0.3-0.3,0.3-0.7,0-0.9c-0.1-0.1-0.3-0.2-0.5-0.2
				s-0.3,0.1-0.5,0.2c-0.3,0.3-0.3,0.7,0,0.9C-440,287.7-439.8,287.8-439.6,287.8 M-429.8,271.9L-429.8,271.9
				c-1.4,0-2.8,0.6-3.8,1.6c-1.4,1.4-1.9,3.5-1.4,5.3l-6.5,6.5c-1,1-1,2.6,0,3.6c0.5,0.5,1.1,0.8,1.8,0.8c0.7,0,1.3-0.3,1.8-0.8
				l6.5-6.5c0.5,0.1,1,0.2,1.5,0.2c1.4,0,2.8-0.6,3.8-1.6c1.4-1.4,1.9-3.6,1.3-5.6l-0.4-1.4l-1.1,1.1l-2.7,2.7l-1-0.3l-0.2-1
				l2.6-2.6l1.1-1.1l-1.5-0.6C-428.6,272-429.2,271.9-429.8,271.9L-429.8,271.9L-429.8,271.9z"/>
		</g>
	</g>
</g>
</svg>
