<?xml version="1.0" encoding="utf-8"?>
<!-- Generator: Adobe Illustrator 19.1.0, SVG Export Plug-In . SVG Version: 6.00 Build 0)  -->
<svg version="1.1" id="Layer_1" xmlns="http://www.w3.org/2000/svg" xmlns:xlink="http://www.w3.org/1999/xlink" x="0px" y="0px"
	 viewBox="-460 265 38 32" style="enable-background:new -460 265 38 32;" xml:space="preserve">
<style type="text/css">
	.st0{fill:#FFFBF5;}
</style>
<g id="background">
	<g>
		<g>
			<defs>
				<polyline id="SVGID_1_" points="988.7,350.3 988.7,1196.3 -462,1196.3 				"/>
			</defs>
			<clipPath id="SVGID_2_">
				<use xlink:href="#SVGID_1_"  style="overflow:visible;"/>
			</clipPath>
		</g>
	</g>
</g>
<g>
	<g>
		<g id="content">
			<g>
				<g>
					<path class="st0" d="M-434.4,283.3c-1.3,0-2.3-1-2.3-2.3s1-2.3,2.3-2.3c1.3,0,2.3,1,2.3,2.3S-433.1,283.3-434.4,283.3z
						 M-434.4,279.7c-0.7,0-1.3,0.6-1.3,1.3s0.6,1.3,1.3,1.3c0.7,0,1.3-0.6,1.3-1.3S-433.7,279.7-434.4,279.7z"/>
				</g>
				<g>
					<path class="st0" d="M-441,283.3c-1.3,0-2.3-1-2.3-2.3s1-2.3,2.3-2.3s2.3,1,2.3,2.3S-439.7,283.3-441,283.3z M-441,279.7
						c-0.7,0-1.3,0.6-1.3,1.3s0.6,1.3,1.3,1.3s1.3-0.6,1.3-1.3S-440.3,279.7-441,279.7z"/>
				</g>
				<g>
					<path class="st0" d="M-447.6,283.3c-1.3,0-2.3-1-2.3-2.3s1-2.3,2.3-2.3c1.3,0,2.3,1,2.3,2.3S-446.3,283.3-447.6,283.3z
						 M-447.6,279.7c-0.7,0-1.3,0.6-1.3,1.3s0.6,1.3,1.3,1.3c0.7,0,1.3-0.6,1.3-1.3S-446.9,279.7-447.6,279.7z"/>
				</g>
			</g>
		</g>
		<g id="window">
		</g>
		<g id="outline">
		</g>
	</g>
</g>
</svg>
