<?xml version="1.0" encoding="utf-8"?>
<!-- Generator: Adobe Illustrator 19.1.0, SVG Export Plug-In . SVG Version: 6.00 Build 0)  -->
<svg version="1.1" xmlns="http://www.w3.org/2000/svg" xmlns:xlink="http://www.w3.org/1999/xlink" x="0px" y="0px"
	 viewBox="0 0 140.1 80" style="enable-background:new 0 0 140.1 80;" xml:space="preserve">
<style type="text/css">
	.st0{display:none;}
	.st1{display:inline;fill:none;stroke:#000000;stroke-width:2;stroke-linecap:round;stroke-linejoin:round;stroke-miterlimit:10;}
	.st2{display:inline;fill:none;stroke:#000000;stroke-width:3;stroke-linecap:round;stroke-linejoin:round;stroke-miterlimit:10;}
	.st3{display:inline;}
	.st4{fill:#FFFFFF;stroke:#12895B;stroke-miterlimit:10;}
	.st5{fill:none;stroke:#000000;stroke-miterlimit:10;}
	.st6{fill:#FFFFFF;stroke:#000000;stroke-miterlimit:10;}
	.st7{fill:none;stroke:#B2B2B2;stroke-miterlimit:10;}
	.st8{fill:#EAEAEA;}
	.st9{fill:#B2B2B2;}
	.st10{fill:none;stroke:#000000;stroke-width:3;stroke-linecap:round;stroke-linejoin:round;stroke-miterlimit:10;}
	.st11{fill:#F1F1F1;}
	.st12{fill:#C6C6C6;}
	.st13{fill:none;stroke:#12895B;stroke-miterlimit:10;}
	.st14{fill:#FFFFFF;}
	.st15{fill:#FFFFFF;stroke:#876868;stroke-miterlimit:10;}
	.st16{fill:#604A5B;}
	.st17{fill:none;stroke:#FFFFFF;stroke-miterlimit:10;}
	.st18{fill:none;stroke:#FFFBF5;stroke-miterlimit:10;}
	.st19{fill:#FFFBF5;}
	.st20{fill:none;stroke:#FFFBF5;stroke-width:4;stroke-miterlimit:10;}
	.st21{fill:none;stroke:#604A5B;stroke-width:2;stroke-miterlimit:10;}
	.st22{fill:none;stroke:#FFFBF5;stroke-linecap:round;stroke-miterlimit:10;}
	.st23{fill:#FFFBF5;stroke:#604A5B;stroke-width:2;stroke-miterlimit:10;}
	.st24{clip-path:url(#SVGID_4_);}
	.st25{clip-path:url(#SVGID_9_);}
	.st26{clip-path:url(#SVGID_10_);}
	.st27{clip-path:url(#SVGID_10_);fill:#FFFFFF;}
	.st28{opacity:0.8;clip-path:url(#SVGID_10_);fill:#443939;}
	.st29{fill:none;stroke:#FFFBF5;stroke-width:1.143;stroke-linecap:round;stroke-linejoin:round;stroke-miterlimit:10;}
	.st30{fill:none;stroke:#B7B7B7;stroke-miterlimit:10;}
	.st31{fill:none;stroke:#604A5B;stroke-miterlimit:10;}
	.st32{fill:none;stroke:#FFFBF5;stroke-width:0.8924;stroke-linejoin:round;stroke-miterlimit:10;}
	.st33{fill:#FFFBF5;stroke:#604A5B;stroke-miterlimit:10;}
	.st34{fill:none;stroke:#FFFBF5;stroke-linecap:round;stroke-linejoin:round;stroke-miterlimit:10;}
	.st35{fill:#FFFBF5;stroke:#604A5B;stroke-width:3;stroke-linecap:round;stroke-linejoin:round;stroke-miterlimit:10;}
	.st36{opacity:0.2;fill:#604A5B;}
	.st37{fill:#F7F0E7;}
	.st38{fill:#30382E;}
	.st39{fill:none;stroke:#30382E;stroke-width:2;stroke-linecap:round;stroke-linejoin:round;stroke-miterlimit:10;}
	.st40{fill:none;stroke:#30382E;stroke-width:2;stroke-linejoin:round;stroke-miterlimit:10;}
	.st41{fill:none;stroke:#30382E;stroke-width:0.8;stroke-linejoin:round;stroke-miterlimit:10;}
	.st42{fill:#ED3A21;}
	.st43{fill:none;stroke:#ED3A21;stroke-width:1.143;stroke-linecap:round;stroke-linejoin:round;stroke-miterlimit:10;}
	.st44{fill:none;stroke:#ED3A21;stroke-linecap:round;stroke-miterlimit:10;}
	.st45{fill:none;stroke:#ED3A21;stroke-width:0.8924;stroke-linejoin:round;stroke-miterlimit:10;}
	.st46{fill:none;stroke:#ED3A21;stroke-miterlimit:10;}
	.st47{fill:none;stroke:#ED3A21;stroke-linecap:round;stroke-linejoin:round;stroke-miterlimit:10;}
	.st48{fill:none;stroke:#FFFBF5;stroke-width:3;stroke-miterlimit:10;}
	.st49{opacity:0.3;}
	.st50{opacity:0.9;fill:#2B2229;}
	.st51{fill:#3F353D;}
	.st52{opacity:0.9;fill:none;stroke:#2B2229;stroke-miterlimit:10;}
	.st53{fill:#776473;}
	.st54{fill:none;stroke:#876868;stroke-miterlimit:10;}
</style>
<g id="back-up-icons" class="st0">
</g>
<g id="background">
	<g id="Layer_6" class="st0">
	</g>
	<g>
		<g>
			<path class="st19" d="M75.6,26.9c-6-0.2-11,4.3-11.6,10.2c2.5,1.1,4.7,2.7,6.5,4.7c1.8-0.7,3.7-1,5.6-1c3.3,0,6.4,1,9.1,2.7
				c0.8-1.5,1.3-3.2,1.3-5C86.7,32.3,81.8,27.1,75.6,26.9z"/>
			<path class="st19" d="M96.5,33.4c-0.6-0.5-1.6-1.2-1.7-1.6c-0.1-0.4,0.2-1.6,0.4-2.4c0.5-1.9,1.1-4-0.1-5.7
				c-1.3-1.7-3.6-1.8-5.4-1.9c-0.8,0-2.1-0.1-2.4-0.3c-0.3-0.2-0.7-1.4-1-2.1c-0.6-1.7-1.4-3.9-3.5-4.6c-2-0.6-3.8,0.6-5.4,1.6
				c-0.7,0.4-1.8,1.2-2.2,1.2s-1.5-0.7-2.2-1.2c-1.6-1.1-3.4-2.3-5.4-1.6c-2.1,0.7-2.9,2.8-3.5,4.6c-0.3,0.7-0.7,1.9-1,2.1
				c-0.3,0.2-1.6,0.3-2.4,0.3c-1.8,0.1-4.1,0.2-5.4,1.9c-1.2,1.7-0.7,3.8-0.1,5.7c0.2,0.8,0.6,2,0.4,2.4c-0.1,0.3-1.1,1.1-1.7,1.6
				c-1,0.8-2.1,1.7-2.8,2.8c1.6-0.5,3.3-0.7,5.1-0.7c0.4,0,0.9,0,1.3,0.1c0.8-0.7,1.5-1.5,1.8-2.5c0.5-1.5,0-3.2-0.4-4.7
				c-0.2-0.7-0.5-1.8-0.5-2.2c0.4-0.2,1.6-0.2,2.3-0.3c1.6-0.1,3.3-0.1,4.6-1.1c1.3-0.9,1.8-2.5,2.4-4c0.3-0.7,0.7-1.9,0.9-2.1
				c0.4,0.1,1.4,0.7,2,1.1c1.3,0.9,2.8,1.9,4.4,1.9c1.6,0,3.1-1,4.4-1.9c0.6-0.4,1.5-1,1.9-1.1c0.3,0.3,0.7,1.4,1,2.1
				c0.6,1.5,1.1,3.1,2.4,4c1.3,0.9,3,1,4.6,1.1c0.7,0,1.9,0.1,2.3,0.3c0,0.5-0.3,1.6-0.5,2.2c-0.4,1.5-0.9,3.2-0.4,4.7
				c0.5,1.5,1.8,2.5,3,3.5c0.6,0.4,1.6,1.2,1.8,1.6c-0.2,0.4-1.2,1.2-1.8,1.6c-1.2,1-2.5,2-3,3.5c-0.5,1.5,0,3.2,0.4,4.7
				c0.2,0.7,0.5,1.8,0.5,2.2c-0.2,0.1-0.4,0.1-0.7,0.2c0.2,0.5,0.4,1,0.6,1.5c0.3,0.7,0.5,1.5,0.7,2.3c1-0.2,2-0.7,2.7-1.6
				c1.2-1.7,0.7-3.8,0.1-5.7c-0.2-0.8-0.6-2-0.4-2.4c0.1-0.3,1.1-1.1,1.7-1.6c1.5-1.2,3.3-2.6,3.3-4.8S98,34.5,96.5,33.4z"/>
		</g>
		<path class="st19" d="M56.4,40.5c-7.8,0-14.1,6.3-14.1,14.1c0,0.4,0,0.7,0,1.1c0,0.2,0,0.5,0,0.7c0,3.8,3.1,6.9,6.9,6.9h31.5
			c3.7,0,6.8-3,6.9-6.6h0c0,0,0,0,0,0c0-0.1,0-0.2,0-0.3c0-1-0.2-1.9-0.6-2.7c-1.5-4.6-5.8-7.9-10.9-7.9c-2.7,0-5.2,0.9-7.2,2.5
			C66.7,43.7,61.9,40.5,56.4,40.5"/>
	</g>
</g>
<g id="content">
</g>
<g id="window">
</g>
<g id="outline">
</g>
</svg>
