<?xml version="1.0" encoding="utf-8"?>
<!-- Generator: Adobe Illustrator 19.1.0, SVG Export Plug-In . SVG Version: 6.00 Build 0)  -->
<svg version="1.1" xmlns="http://www.w3.org/2000/svg" xmlns:xlink="http://www.w3.org/1999/xlink" x="0px" y="0px"
	 viewBox="0 0 32 32" style="enable-background:new 0 0 32 32;" xml:space="preserve">
<style type="text/css">
	.st0{display:none;}
	.st1{display:inline;fill:none;stroke:#000000;stroke-width:2;stroke-linecap:round;stroke-linejoin:round;stroke-miterlimit:10;}
	.st2{display:inline;fill:none;stroke:#000000;stroke-width:3;stroke-linecap:round;stroke-linejoin:round;stroke-miterlimit:10;}
	.st3{display:inline;}
	.st4{fill:#FFFFFF;stroke:#12895B;stroke-miterlimit:10;}
	.st5{fill:none;stroke:#000000;stroke-miterlimit:10;}
	.st6{fill:#FFFFFF;stroke:#000000;stroke-miterlimit:10;}
	.st7{fill:none;stroke:#B2B2B2;stroke-miterlimit:10;}
	.st8{fill:#EAEAEA;}
	.st9{fill:#B2B2B2;}
	.st10{fill:none;stroke:#000000;stroke-width:3;stroke-linecap:round;stroke-linejoin:round;stroke-miterlimit:10;}
	.st11{fill:#F1F1F1;}
	.st12{fill:#C6C6C6;}
	.st13{fill:none;stroke:#12895B;stroke-miterlimit:10;}
	.st14{fill:#FFFFFF;}
	.st15{fill:#FFFFFF;stroke:#876868;stroke-miterlimit:10;}
	.st16{fill:#604A5B;}
	.st17{fill:none;stroke:#FFFFFF;stroke-miterlimit:10;}
	.st18{fill:none;stroke:#FFFBF5;stroke-miterlimit:10;}
	.st19{fill:#FFFBF5;}
	.st20{fill:none;stroke:#FFFBF5;stroke-width:4;stroke-miterlimit:10;}
	.st21{fill:none;stroke:#604A5B;stroke-width:2;stroke-miterlimit:10;}
	.st22{fill:none;stroke:#FFFBF5;stroke-linecap:round;stroke-miterlimit:10;}
	.st23{fill:#FFFBF5;stroke:#604A5B;stroke-width:2;stroke-miterlimit:10;}
	.st24{clip-path:url(#SVGID_4_);}
	.st25{clip-path:url(#SVGID_9_);}
	.st26{clip-path:url(#SVGID_10_);}
	.st27{clip-path:url(#SVGID_10_);fill:#FFFFFF;}
	.st28{opacity:0.8;clip-path:url(#SVGID_10_);fill:#443939;}
	.st29{fill:none;stroke:#FFFBF5;stroke-width:1.143;stroke-linecap:round;stroke-linejoin:round;stroke-miterlimit:10;}
	.st30{fill:none;stroke:#B7B7B7;stroke-miterlimit:10;}
	.st31{fill:none;stroke:#604A5B;stroke-miterlimit:10;}
	.st32{fill:none;stroke:#FFFBF5;stroke-width:0.8924;stroke-linejoin:round;stroke-miterlimit:10;}
	.st33{fill:#FFFBF5;stroke:#604A5B;stroke-miterlimit:10;}
	.st34{fill:none;stroke:#FFFBF5;stroke-linecap:round;stroke-linejoin:round;stroke-miterlimit:10;}
	.st35{fill:#FFFBF5;stroke:#604A5B;stroke-width:3;stroke-linecap:round;stroke-linejoin:round;stroke-miterlimit:10;}
	.st36{opacity:0.2;fill:#604A5B;}
	.st37{fill:#F7F0E7;}
	.st38{fill:#30382E;}
	.st39{fill:none;stroke:#30382E;stroke-width:2;stroke-linecap:round;stroke-linejoin:round;stroke-miterlimit:10;}
	.st40{fill:none;stroke:#30382E;stroke-width:2;stroke-linejoin:round;stroke-miterlimit:10;}
	.st41{fill:none;stroke:#30382E;stroke-width:0.8;stroke-linejoin:round;stroke-miterlimit:10;}
	.st42{fill:#ED3A21;}
	.st43{fill:none;stroke:#ED3A21;stroke-width:1.143;stroke-linecap:round;stroke-linejoin:round;stroke-miterlimit:10;}
	.st44{fill:none;stroke:#ED3A21;stroke-linecap:round;stroke-miterlimit:10;}
	.st45{fill:none;stroke:#ED3A21;stroke-width:0.8924;stroke-linejoin:round;stroke-miterlimit:10;}
	.st46{fill:none;stroke:#ED3A21;stroke-miterlimit:10;}
	.st47{fill:none;stroke:#ED3A21;stroke-linecap:round;stroke-linejoin:round;stroke-miterlimit:10;}
	.st48{fill:none;stroke:#FFFBF5;stroke-width:3;stroke-miterlimit:10;}
	.st49{opacity:0.3;}
	.st50{opacity:0.9;fill:#2B2229;}
	.st51{fill:#3F353D;}
	.st52{opacity:0.9;fill:none;stroke:#2B2229;stroke-miterlimit:10;}
	.st53{fill:#776473;}
	.st54{fill:none;stroke:#876868;stroke-miterlimit:10;}
</style>
<g id="back-up-icons" class="st0">
</g>
<g id="background">
	<g id="Layer_6" class="st0">
	</g>
	<g>
		<g>
			<path class="st16" d="M16,23.8c-0.1,0-0.2,0-0.2,0c-2.1-0.1-4-0.9-5.5-2.5c-1.4-1.5-2.2-3.5-2.1-5.6c0.1-4.3,3.8-7.7,8.1-7.6
				c2.1,0.1,4,0.9,5.5,2.5c1.4,1.5,2.2,3.5,2.1,5.6C23.7,20.5,20.2,23.8,16,23.8z M16,10.2c-3.1,0-5.7,2.5-5.8,5.7
				c0,1.6,0.5,3,1.6,4.2s2.5,1.8,4.1,1.8c3.2,0.1,5.9-2.4,6-5.7c0-1.6-0.5-3-1.6-4.2s-2.5-1.8-4.1-1.8C16.1,10.2,16.1,10.2,16,10.2z
				"/>
		</g>
		<g>
			<path class="st16" d="M11.7,30.8c-0.2,0-0.3,0-0.5-0.1c-1.3-0.4-1.5-2-1.6-3.6c-0.1-0.6-0.2-1.6-0.3-1.9
				c-0.3-0.1-1.3,0.1-1.9,0.3c-1.5,0.3-3.1,0.6-3.9-0.4c-0.8-1.1,0-2.4,0.8-3.8c0.3-0.5,0.8-1.4,0.8-1.7c-0.2-0.2-1.1-0.6-1.6-0.9
				C2,18,0.6,17.4,0.6,16s1.5-2,2.9-2.7c0.5-0.2,1.4-0.6,1.6-0.9c0-0.4-0.5-1.2-0.8-1.7C3.5,9.4,2.7,8,3.5,6.9
				c0.8-1.1,2.3-0.8,3.9-0.4C8,6.6,8.9,6.8,9.3,6.7c0.2-0.3,0.3-1.3,0.3-1.9c0.2-1.5,0.3-3.1,1.6-3.6c1.2-0.4,2.3,0.8,3.3,1.9
				C15,3.7,15.7,4.5,16,4.6c0.2-0.1,1-0.9,1.4-1.4c1-1.1,2.1-2.3,3.3-1.9c1.3,0.4,1.5,2,1.6,3.6c0.1,0.6,0.2,1.6,0.3,1.9
				c0.3,0.1,1.3-0.1,1.9-0.3c1.5-0.3,3.1-0.6,3.9,0.4c0.8,1.1,0,2.4-0.8,3.8c-0.3,0.5-0.8,1.4-0.8,1.7c0.2,0.2,1.1,0.6,1.6,0.9
				c1.4,0.6,2.9,1.3,2.9,2.7s-1.5,2-2.9,2.7c-0.5,0.2-1.4,0.6-1.6,0.9c0,0.4,0.5,1.2,0.8,1.7c0.8,1.3,1.5,2.7,0.8,3.8
				c-0.8,1.1-2.3,0.8-3.9,0.4c-0.6-0.1-1.6-0.3-1.9-0.3c-0.2,0.3-0.3,1.3-0.3,1.9c-0.2,1.5-0.3,3.1-1.6,3.6
				c-1.2,0.4-2.3-0.8-3.3-1.9c-0.4-0.5-1.2-1.3-1.5-1.4c-0.2,0.1-1,0.9-1.4,1.4C13.7,29.8,12.8,30.8,11.7,30.8z M9.1,23.2
				c0.5,0,1,0.1,1.4,0.4c0.8,0.6,1,1.9,1.1,3.3c0.1,0.5,0.1,1.3,0.3,1.7c0.3-0.3,0.9-0.8,1.2-1.2c0.9-1,1.8-2,2.9-2s2,1,2.9,2
				c0.3,0.4,0.9,0.9,1.2,1.2c0.1-0.4,0.2-1.2,0.3-1.7c0.1-1.4,0.3-2.7,1.1-3.3c0.9-0.6,2.1-0.4,3.5-0.1c0.5,0.1,1.3,0.3,1.7,0.3
				c0,0,0,0,0,0c-0.1-0.4-0.5-1.1-0.8-1.5c-0.7-1.2-1.3-2.3-1-3.4c0.3-1,1.5-1.5,2.7-2.1c0.5-0.2,1.3-0.6,1.6-0.8
				c-0.3-0.3-1.1-0.6-1.6-0.8c-1.2-0.6-2.4-1.1-2.7-2.1c-0.3-1,0.3-2.2,1-3.4c0.3-0.4,0.6-1.1,0.8-1.5c0,0,0,0,0,0
				c-0.4,0-1.2,0.2-1.7,0.3c-1.4,0.3-2.6,0.5-3.5-0.1c-0.8-0.6-1-1.9-1.1-3.3c-0.1-0.5-0.1-1.3-0.3-1.7c-0.3,0.3-0.9,0.8-1.2,1.2
				c-0.9,1-1.8,2-2.9,2s-2-1-2.9-2c-0.3-0.4-0.9-0.9-1.2-1.2c-0.1,0.4-0.2,1.2-0.3,1.7c-0.1,1.4-0.3,2.7-1.1,3.3
				C9.6,9,8.3,8.7,7,8.4C6.5,8.3,5.7,8.2,5.3,8.2c0,0,0,0,0,0C5.4,8.6,5.8,9.3,6,9.7c0.7,1.2,1.3,2.3,1,3.4c-0.3,1-1.5,1.5-2.7,2.1
				C3.8,15.4,3,15.7,2.7,16c0.3,0.3,1.1,0.6,1.6,0.8c1.2,0.6,2.4,1.1,2.7,2.1c0.3,1-0.3,2.2-1,3.4c-0.3,0.4-0.6,1.1-0.8,1.5
				c0,0,0,0,0,0c0.4,0,1.2-0.2,1.7-0.3C7.7,23.4,8.4,23.2,9.1,23.2z"/>
		</g>
	</g>
</g>
<g id="content">
</g>
<g id="window">
</g>
<g id="outline">
</g>
</svg>
