<?xml version="1.0" encoding="utf-8"?>
<!-- Generator: Adobe Illustrator 19.1.0, SVG Export Plug-In . SVG Version: 6.00 Build 0)  -->
<svg version="1.1" id="Layer_1" xmlns="http://www.w3.org/2000/svg" xmlns:xlink="http://www.w3.org/1999/xlink" x="0px" y="0px"
	 viewBox="-454 256 50 50" style="enable-background:new -454 256 50 50;" xml:space="preserve">
<style type="text/css">
	.st0{display:none;}
	.st1{fill:#FFFBF5;}
</style>
<g id="back-up-icons" class="st0">
</g>
<g id="Layer_6" class="st0">
</g>
<g>
	<g>
		<path class="st1" d="M-421.6,278.5h-14.9c-1.6,0-2.9-1.3-2.9-2.9s1.3-2.9,2.9-2.9h14.9c1.6,0,2.9,1.3,2.9,2.9
			S-420,278.5-421.6,278.5z M-436.4,273.6c-1.1,0-1.9,0.9-1.9,1.9s0.9,1.9,1.9,1.9h14.9c1.1,0,1.9-0.9,1.9-1.9s-0.9-1.9-1.9-1.9
			H-436.4z"/>
	</g>
	<g>
		<path class="st1" d="M-422.9,292.4h-12.1c-0.9,0-1.7-0.8-1.7-1.7v-10.8h1v10.8c0,0.4,0.3,0.7,0.7,0.7h12.1c0.4,0,0.7-0.3,0.7-0.7
			v-10.8h1v10.8C-421.2,291.6-422,292.4-422.9,292.4z"/>
	</g>
	<g>
		<path class="st1" d="M-423.1,273.1h-1v-1.4c0-0.6-0.5-1.1-1.1-1.1h-7.5c-0.6,0-1.1,0.5-1.1,1.1v1.4h-1v-1.4c0-1.2,1-2.1,2.1-2.1
			h7.5c1.2,0,2.1,1,2.1,2.1V273.1z"/>
	</g>
</g>
</svg>
